<svg width="156" height="45" viewBox="0 0 156 45" fill="none" xmlns="http://www.w3.org/2000/svg">
<path fill-rule="evenodd" clip-rule="evenodd" d="M20 0L40 10V35L20 45L0 35V10L20 0Z" fill="#338CD6"/>
<path fill-rule="evenodd" clip-rule="evenodd" d="M20 20V45L0 35V10L20 20Z" fill="#1C3E5A"/>
<path fill-rule="evenodd" clip-rule="evenodd" d="M20 0L40 10L20 20L0 10L20 0Z" fill="#B9DAF5"/>
<path d="M55.4023 14.9375H58.918V26.75C58.918 27.8359 58.6758 28.7969 58.1914 29.6328C57.7148 30.4609 57.0391 31.1016 56.1641 31.5547C55.2891 32.0078 54.3008 32.2344 53.1992 32.2344C51.3945 32.2344 49.9883 31.7773 48.9805 30.8633C47.9727 29.9414 47.4688 28.6406 47.4688 26.9609H51.0078C51.0078 27.7969 51.1836 28.4141 51.5352 28.8125C51.8867 29.2109 52.4414 29.4102 53.1992 29.4102C53.8711 29.4102 54.4062 29.1797 54.8047 28.7188C55.2031 28.2578 55.4023 27.6016 55.4023 26.75V14.9375ZM71.3047 28.4844H65.1406L63.9688 32H60.2305L66.582 14.9375H69.8398L76.2266 32H72.4883L71.3047 28.4844ZM66.0898 25.6367H70.3555L68.2109 19.25L66.0898 25.6367ZM88.0859 24.6055H81.3359V29.1758H89.2578V32H77.8203V14.9375H89.2344V17.7852H81.3359V21.8516H88.0859V24.6055ZM100.168 27.5234C100.168 26.8594 99.9336 26.3516 99.4648 26C98.9961 25.6406 98.1523 25.2656 96.9336 24.875C95.7148 24.4766 94.75 24.0859 94.0391 23.7031C92.1016 22.6562 91.1328 21.2461 91.1328 19.4727C91.1328 18.5508 91.3906 17.7305 91.9062 17.0117C92.4297 16.2852 93.1758 15.7188 94.1445 15.3125C95.1211 14.9062 96.2148 14.7031 97.4258 14.7031C98.6445 14.7031 99.7305 14.9258 100.684 15.3711C101.637 15.8086 102.375 16.4297 102.898 17.2344C103.43 18.0391 103.695 18.9531 103.695 19.9766H100.18C100.18 19.1953 99.9336 18.5898 99.4414 18.1602C98.9492 17.7227 98.2578 17.5039 97.3672 17.5039C96.5078 17.5039 95.8398 17.6875 95.3633 18.0547C94.8867 18.4141 94.6484 18.8906 94.6484 19.4844C94.6484 20.0391 94.9258 20.5039 95.4805 20.8789C96.043 21.2539 96.8672 21.6055 97.9531 21.9336C99.9531 22.5352 101.41 23.2812 102.324 24.1719C103.238 25.0625 103.695 26.1719 103.695 27.5C103.695 28.9766 103.137 30.1367 102.02 30.9805C100.902 31.8164 99.3984 32.2344 97.5078 32.2344C96.1953 32.2344 95 31.9961 93.9219 31.5195C92.8438 31.0352 92.0195 30.375 91.4492 29.5391C90.8867 28.7031 90.6055 27.7344 90.6055 26.6328H94.1328C94.1328 28.5156 95.2578 29.457 97.5078 29.457C98.3438 29.457 98.9961 29.2891 99.4648 28.9531C99.9336 28.6094 100.168 28.1328 100.168 27.5234ZM120.102 23.8555C120.102 25.5352 119.805 27.0078 119.211 28.2734C118.617 29.5391 117.766 30.5156 116.656 31.2031C115.555 31.8906 114.289 32.2344 112.859 32.2344C111.445 32.2344 110.184 31.8945 109.074 31.2148C107.965 30.5352 107.105 29.5664 106.496 28.3086C105.887 27.043 105.578 25.5898 105.57 23.9492V23.1055C105.57 21.4258 105.871 19.9492 106.473 18.6758C107.082 17.3945 107.938 16.4141 109.039 15.7344C110.148 15.0469 111.414 14.7031 112.836 14.7031C114.258 14.7031 115.52 15.0469 116.621 15.7344C117.73 16.4141 118.586 17.3945 119.188 18.6758C119.797 19.9492 120.102 21.4219 120.102 23.0938V23.8555ZM116.539 23.082C116.539 21.293 116.219 19.9336 115.578 19.0039C114.938 18.0742 114.023 17.6094 112.836 17.6094C111.656 17.6094 110.746 18.0703 110.105 18.9922C109.465 19.9062 109.141 21.25 109.133 23.0234V23.8555C109.133 25.5977 109.453 26.9492 110.094 27.9102C110.734 28.8711 111.656 29.3516 112.859 29.3516C114.039 29.3516 114.945 28.8906 115.578 27.9688C116.211 27.0391 116.531 25.6875 116.539 23.9141V23.082ZM132.922 25.0273H126.172V32H122.656V14.9375H133.766V17.7852H126.172V22.1914H132.922V25.0273ZM148.883 17.7852H143.656V32H140.141V17.7852H134.984V14.9375H148.883V17.7852Z" fill="#338CD6"/>
</svg>
